# xmcd
#
# Track frame offsets:
#	150
#	15841
#	34783
#	51133
#	65023
#	79220
#	94527
#	109806
#	125094
#	139058
#	159187
#	175669
#	193436
#	205112
#	220687
#	235747
#	252078
#	265483
#	282274
#	295110
#	310848
#	325668
#
# Disc length: 4602 seconds
# Revision: 0
# Processed by: cddbd v1.5.2PL0 Copyright (c) Steve Scherf et al.
# Submitted via: dBpowerAMP V12.0
#
DISCID=3711f816
DTITLE=Nic Pizzolatto - Galveston 4
DYEAR=1900
DGENRE=
TTITLE0=075
TTITLE1=076
TTITLE2=077
TTITLE3=078
TTITLE4=079
TTITLE5=080
TTITLE6=081
TTITLE7=082
TTITLE8=083
TTITLE9=084
TTITLE10=085
TTITLE11=086
TTITLE12=087
TTITLE13=088
TTITLE14=089
TTITLE15=090
TTITLE16=091
TTITLE17=092
TTITLE18=093
TTITLE19=094
TTITLE20=095
TTITLE21=096
EXTD=
EXTT0=
EXTT1=
EXTT2=
EXTT3=
EXTT4=
EXTT5=
EXTT6=
EXTT7=
EXTT8=
EXTT9=
EXTT10=
EXTT11=
EXTT12=
EXTT13=
EXTT14=
EXTT15=
EXTT16=
EXTT17=
EXTT18=
EXTT19=
EXTT20=
EXTT21=
PLAYORDER=
